<svg xmlns="http://www.w3.org/2000/svg"
      width="512.000000pt" height="512.000000pt" viewBox="0 0 512.000000 512.000000"
      preserveAspectRatio="xMidYMid meet">
      <g transform="translate(0.000000,512.000000) scale(0.100000,-0.100000)"
        stroke="none">
        <path d="M3047 5089 c5 -4 115 -82 246 -173 l238 -167 304 168 c168 92 299
169 292 170 -38 6 -1086 8 -1080 2z"/>
        <path d="M3998 4901 c-185 -102 -335 -187 -334 -188 4 -4 1351 -193 1375 -193
l21 0 -21 53 c-48 123 -149 252 -263 336 -93 69 -241 133 -381 164 l-60 14
-337 -186z"/>
        <path d="M2725 4934 c-371 -39 -861 -274 -1291 -620 -470 -378 -887 -893
-1092 -1350 -130 -290 -182 -565 -142 -760 35 -171 140 -289 295 -331 253 -68
595 -10 910 156 332 174 630 405 991 765 301 302 488 540 662 844 353 616 330
1153 -54 1271 -61 20 -207 32 -279 25z"/>
        <path d="M3695 4630 c3 -5 301 -251 661 -546 436 -356 659 -532 664 -524 12
20 59 230 75 335 17 117 18 380 1 475 -10 59 -13 65 -41 72 -16 5 -322 49
-680 98 -357 50 -658 92 -668 94 -9 2 -15 0 -12 -4z"/>
        <path d="M3537 4563 c-8 -26 -90 -292 -182 -591 -92 -298 -166 -544 -163 -547
3 -4 1532 95 1661 107 24 3 -58 73 -627 538 -361 294 -660 536 -665 538 -5 2
-16 -18 -24 -45z"/>
        <path d="M4115 3374 c-423 -29 -792 -53 -819 -53 -34 -1 -47 -4 -40 -11 13
-13 1266 -781 1278 -783 25 -5 248 398 342 614 33 76 104 270 104 284 0 8 -61
5 -865 -51z"/>
        <path d="M5016 3203 c-77 -180 -218 -445 -344 -648 l-75 -120 122 -840 c116
-789 138 -930 140 -880 1 11 44 582 96 1270 53 687 94 1258 93 1268 -2 11 -15
-9 -32 -50z"/>
        <path d="M2408 2613 c-367 -340 -667 -622 -667 -628 0 -11 1789 -589 1797
-580 6 6 -451 1825 -458 1825 -3 0 -305 -278 -672 -617z"/>
        <path d="M3230 3181 c0 -14 440 -1754 444 -1759 6 -5 163 174 294 336 139 172
283 366 406 546 71 105 85 131 74 141 -12 11 -1192 736 -1210 743 -4 2 -8 -1
-8 -7z"/>
        <path d="M4440 2202 c-161 -233 -410 -549 -607 -772 -57 -63 -102 -118 -100
-122 2 -7 1071 -957 1074 -954 3 3 -285 1947 -289 1952 -2 2 -38 -45 -78 -104z"/>
        <path d="M50 2260 c-3 -12 -38 -1045 -35 -1048 2 -3 106 182 223 398 l40 75
-104 270 c-105 273 -122 314 -124 305z"/>
        <path d="M1710 1895 c0 -6 732 -1420 740 -1428 13 -15 329 184 525 331 214
160 590 491 574 506 -3 3 -1600 520 -1781 576 -32 10 -58 16 -58 15z"/>
        <path d="M962 1762 c-553 -120 -583 -127 -578 -147 3 -11 149 -355 325 -764
307 -718 319 -742 329 -710 42 130 522 1730 522 1738 0 14 82 30 -598 -117z"/>
        <path d="M1627 1769 c-14 -46 -134 -444 -267 -884 -132 -440 -245 -813 -250
-829 l-10 -29 69 7 c215 21 592 124 851 230 100 42 360 169 360 176 0 4 -164
323 -364 709 l-364 703 -25 -83z"/>
        <path d="M340 1479 c0 -13 -23 -280 -50 -594 l-49 -570 78 -76 c84 -83 171
-133 286 -164 66 -18 352 -34 342 -19 -2 5 -69 167 -147 359 -220 541 -442
1070 -456 1084 -2 2 -4 -7 -4 -20z"/>
        <path d="M121 1213 l-114 -207 6 -91 c8 -114 30 -229 63 -325 29 -86 83 -194
84 -167 0 10 18 233 40 494 23 262 40 482 38 490 -2 8 -54 -80 -117 -194z"/>
        <path d="M3530 1164 c-262 -237 -524 -444 -755 -597 -71 -47 -139 -93 -150
-101 -19 -15 -19 -15 8 -16 15 0 487 -36 1049 -80 562 -45 1027 -80 1035 -78
16 4 -1050 952 -1075 956 -10 1 -57 -34 -112 -84z"/>
        <path d="M2305 294 c-178 -88 -259 -123 -420 -180 -77 -28 -110 -43 -91 -43
24 -1 2393 157 2414 160 12 2 -1682 138 -1718 138 -23 0 -85 -26 -185 -75z"/>
      </g>
    </svg>